<svg xmlns="http://www.w3.org/2000/svg" width="73.259" height="73.172" viewBox="0 0 73.259 73.172">
  <g id="Group_225" data-name="Group 225" transform="translate(-8 246)">
    <path id="Path_8" data-name="Path 8" d="M39.334,11.463a27.963,27.963,0,0,1,7.248.95l2.13-7.39a35.932,35.932,0,0,0-17.564-.251l1.843,7.415a28.015,28.015,0,0,1,6.345-.724Zm0,20.913a.312.312,0,1,1,0-.624,7.578,7.578,0,0,1,6.092,3.066.312.312,0,0,1-.5.371,6.944,6.944,0,0,0-5.591-2.813ZM9.469,41.369a.5.5,0,1,1,0,1l-2.44.019a1.488,1.488,0,0,1-.513.044A.586.586,0,0,0,6.1,42.7a.459.459,0,0,0-.03.292.724.724,0,0,0,.163.333.534.534,0,0,0,.59.177.5.5,0,1,1,.32.944,1.5,1.5,0,0,1-1.672-.477,1.737,1.737,0,0,1-.381-.8A1.445,1.445,0,0,1,5.2,42.26a1.343,1.343,0,0,1,.285-.387l0,0a1.737,1.737,0,0,1-.381-.8,1.445,1.445,0,0,1,.116-.913,1.388,1.388,0,0,1,.444-.52,1.549,1.549,0,0,1-.29-.6,1.1,1.1,0,0,1,.126-.823,1.746,1.746,0,0,1,1.6-.673l2.456-.019a.757.757,0,0,0,.32-.216.221.221,0,0,0,.041-.172.749.749,0,0,0-.19-.351A3.3,3.3,0,0,0,8.3,35.939a.5.5,0,1,1,.32-.944,4.277,4.277,0,0,1,1.862,1.134,1.718,1.718,0,0,1,.425.854,1.188,1.188,0,0,1-.233.918,1.789,1.789,0,0,1-.855.585.486.486,0,0,1-.166.029l-2.547.019c-.461,0-.683.085-.749.194a.144.144,0,0,0-.005.1.566.566,0,0,0,.13.239.782.782,0,0,0,.323.229c.044,0,.09,0,.135,0h.219a.507.507,0,0,1,.115,0l2.215-.016a.5.5,0,1,1,0,1l-2.22.016a1.4,1.4,0,0,1-.543.014c-.349.036-.539.156-.613.3a.459.459,0,0,0-.03.292.725.725,0,0,0,.163.333.578.578,0,0,0,.291.19,3.222,3.222,0,0,1,.341-.025.5.5,0,0,1,.226,0l2.362-.017ZM9.4,51.8a.5.5,0,0,1,.894-.441l.913,1.835a.5.5,0,0,1-.226.667.318.318,0,0,1-.048.02,1.485,1.485,0,0,0-.631.49,1.151,1.151,0,0,0-.22.678,1.135,1.135,0,0,0,1.137,1.135,1.12,1.12,0,0,0,.4-.072,1.441,1.441,0,0,0,.4-.235.5.5,0,0,1,.7.072.755.755,0,0,1,.045.065h0l1.019,1.757a.5.5,0,0,1-.863.5l-.759-1.309c-.063.03-.126.057-.19.082a2.136,2.136,0,0,1-2.891-2,2.139,2.139,0,0,1,.411-1.259A2.423,2.423,0,0,1,10.1,53.2L9.4,51.8Zm1.846-.94a.5.5,0,0,1,.875-.477l3.508,6.443a.5.5,0,0,1-.875.477Zm12.821,16.33c0,.005,0,.01,0,.015a.586.586,0,0,1,0,.115.142.142,0,0,0,.013.024.373.373,0,0,0,.108.095,1.147,1.147,0,0,0,.431.152A4.643,4.643,0,0,1,26,65.418a.5.5,0,1,1,.653.754,3.513,3.513,0,0,0-1.078,1.7,1.15,1.15,0,0,0-.03.207.4.4,0,0,1,0,.055.432.432,0,0,0,.015.1c.006.02.014.032.023.036a1.163,1.163,0,0,0,.693-.109.5.5,0,1,1,.336.94,2.011,2.011,0,0,1-1.384.1.993.993,0,0,1-.6-.613,2.262,2.262,0,0,1-.975-.317,1.4,1.4,0,0,1-.389-.368,1.18,1.18,0,0,1-.1-.172,2.24,2.24,0,0,1-.984-.318,1.4,1.4,0,0,1-.389-.368,1.11,1.11,0,0,1-.2-.55,1.438,1.438,0,0,1,.263-.9l1.243-1.923a.5.5,0,0,1,.84.54l-1.243,1.923a.5.5,0,0,0-.106.282.118.118,0,0,0,.023.061.373.373,0,0,0,.108.095,1.146,1.146,0,0,0,.461.156,1.926,1.926,0,0,1,.149-.275l1.243-1.923a.5.5,0,0,1,.84.54L24.165,67a.787.787,0,0,0-.1.191Zm13.921,1.941a.5.5,0,0,1-1-.024,1.565,1.565,0,0,1,1.259-1.349,2.347,2.347,0,0,1,.843-.089,1.474,1.474,0,0,1,.818.308,1.206,1.206,0,0,1,.324,1.393,7.473,7.473,0,0,1-.353.878,2.433,2.433,0,0,0-.328,1.732.5.5,0,0,1,.014.059h0a.669.669,0,0,0,.418.472,1.011,1.011,0,0,0,.414.085.76.76,0,0,0,.365-.09.7.7,0,0,0,.329-.568.441.441,0,0,1,.01-.059,3.341,3.341,0,0,0-.176-1.4c0-.014-.009-.031-.058-.22a1.873,1.873,0,0,1,.345-1.865,1.232,1.232,0,0,1,1.155-.335A1.492,1.492,0,0,1,43.447,69.2a.5.5,0,0,1-.965.255c-.068-.257-.2-.4-.333-.426a.24.24,0,0,0-.229.069c-.141.141-.205.44-.084.909.011.044.023.082.058.212a4.051,4.051,0,0,1,.193,1.832,1.652,1.652,0,0,1-.835,1.323,1.779,1.779,0,0,1-.839.215,2,2,0,0,1-.824-.167,1.656,1.656,0,0,1-1-1.2,3.212,3.212,0,0,1,.383-2.388,6.919,6.919,0,0,0,.31-.762c.058-.185.045-.288-.008-.331a.5.5,0,0,0-.266-.086,1.31,1.31,0,0,0-.479.054c-.288.084-.535.239-.54.416Zm15.8-.631a.5.5,0,1,1,.285-.957.2.2,0,0,0,.08.01.2.2,0,0,0,.068-.015l.012-.006a.1.1,0,0,0,.05-.052.084.084,0,0,0,0-.06l0-.01a.49.49,0,0,0-.123-.146.582.582,0,0,0-.188-.1.59.59,0,0,0-.49.059.675.675,0,0,0-.179.159.685.685,0,0,0-.115.215.748.748,0,0,0,.1.621,1.1,1.1,0,0,0,.359.368,1.859,1.859,0,0,0,1.318.145,5.285,5.285,0,0,0,1.716-.692,4.734,4.734,0,0,0,1.517-1.371.5.5,0,0,1,.844.531,5.757,5.757,0,0,1-1.844,1.692,6.322,6.322,0,0,1-2.048.821,2.815,2.815,0,0,1-2.033-.281,2.094,2.094,0,0,1-.679-.7,1.692,1.692,0,0,1,.09-1.968,1.676,1.676,0,0,1,.445-.393,1.589,1.589,0,0,1,1.823.12,1.473,1.473,0,0,1,.373.451.873.873,0,0,1,.04.084,1.064,1.064,0,0,1,.028.791,1.1,1.1,0,0,1-.519.6q-.039.021-.086.041a1.2,1.2,0,0,1-.828.047Zm3.242-4.291a.5.5,0,1,1-.285.957.2.2,0,0,0-.08-.01.2.2,0,0,0-.068.015l-.013.006a.1.1,0,0,0-.05.052.084.084,0,0,0,0,.06l0,.01a.49.49,0,0,0,.123.146.582.582,0,0,0,.188.1.59.59,0,0,0,.49-.059.675.675,0,0,0,.179-.159.685.685,0,0,0,.115-.215.748.748,0,0,0-.1-.621,1.1,1.1,0,0,0-.359-.368,1.859,1.859,0,0,0-1.318-.145,5.285,5.285,0,0,0-1.716.692,4.734,4.734,0,0,0-1.517,1.371.5.5,0,0,1-.844-.531,5.757,5.757,0,0,1,1.844-1.692A6.322,6.322,0,0,1,55.678,63a2.815,2.815,0,0,1,2.033.281,2.094,2.094,0,0,1,.679.7,1.692,1.692,0,0,1-.09,1.968,1.676,1.676,0,0,1-.445.393,1.589,1.589,0,0,1-1.823-.12,1.473,1.473,0,0,1-.373-.451.872.872,0,0,1-.04-.084,1.064,1.064,0,0,1-.028-.791,1.1,1.1,0,0,1,.519-.6q.039-.021.086-.041a1.2,1.2,0,0,1,.828-.047ZM65.15,51.823a.5.5,0,0,1,.973-.227,4.891,4.891,0,0,1,.1.595,4,4,0,0,1-.013,1.013l2.43,1.45a3.913,3.913,0,0,1,1.183-.588,3.594,3.594,0,0,1,.441-.1.5.5,0,1,1,.168.984,2.763,2.763,0,0,0-.324.076,2.811,2.811,0,0,0-1.461,1.012,2.348,2.348,0,0,0-.405,1.827,3.024,3.024,0,0,0,.086.366.5.5,0,0,1-.958.285,4.209,4.209,0,0,1-.114-.483,3.6,3.6,0,0,1-.044-.9l-2.557-1.526a3.726,3.726,0,0,1-1.155.5h0a3.433,3.433,0,0,1-.4.067A.5.5,0,1,1,63,55.179a2.075,2.075,0,0,0,.27-.049h0a2.682,2.682,0,0,0,1.429-.882,2.536,2.536,0,0,0,.529-1.953,3.911,3.911,0,0,0-.084-.473Zm.768,2.364a3.375,3.375,0,0,1-.444.694l-.027.032,2.018,1.2a3.31,3.31,0,0,1,.381-.671c.019-.025.038-.051.058-.076l-1.984-1.185ZM72.541,40.2c.055.021.11.045.164.071a1.838,1.838,0,0,1,1.059,1.762,3.148,3.148,0,0,1-.354,1.3.5.5,0,0,1-.9-.437,2.17,2.17,0,0,0,.253-.882.9.9,0,0,0-.138-.533.892.892,0,0,0-.363-.312,1.165,1.165,0,0,0-.378-.11,2.465,2.465,0,1,1,.154-3.628c.033.032.064.066.1.1a1.127,1.127,0,0,0,.409-.114.892.892,0,0,0,.363-.312.914.914,0,0,0,.138-.533,2.175,2.175,0,0,0-.253-.882.5.5,0,0,1,.9-.437,3.138,3.138,0,0,1,.354,1.3A1.838,1.838,0,0,1,72.985,38.3a2.125,2.125,0,0,1-.33.129,2.471,2.471,0,0,1-.114,1.764Zm-1.205-2.067a1.464,1.464,0,1,0,.43,1.037A1.466,1.466,0,0,0,71.336,38.132ZM64.742,25.843a.556.556,0,0,1-.539-.958c.18-.127.341-.239.506-.352,1.027-.7,2.17-1.485,2.465-2.7a1,1,0,0,0-.409-.953.656.656,0,0,0-.32-.107.476.476,0,0,0-.274.07c-.229.146-.39.516-.354,1.179a.5.5,0,0,1-1,.051,2.154,2.154,0,0,1,.815-2.07,1.454,1.454,0,0,1,.848-.226,1.644,1.644,0,0,1,.817.26,1.976,1.976,0,0,1,.867,1.9.42.42,0,0,1-.013.087,3.7,3.7,0,0,1-.369.959,3.635,3.635,0,0,1,.884-.032.551.551,0,0,1,.093.016,1.978,1.978,0,0,1,1.543,1.406,1.644,1.644,0,0,1,0,.853,1.452,1.452,0,0,1-.475.739,2.159,2.159,0,0,1-2.223.141.5.5,0,1,1,.356-.933c.62.237,1.023.2,1.232.024a.466.466,0,0,0,.151-.236.661.661,0,0,0,0-.338,1,1,0,0,0-.782-.679c-1.249-.09-2.345.757-3.327,1.517-.19.146-.376.291-.489.375ZM53.53,11.633a.5.5,0,1,1,.419-.905l1.308.607a2.665,2.665,0,0,0,.009-.437,3.52,3.52,0,0,0-.3-1.173.5.5,0,0,1,.918-.395,4.536,4.536,0,0,1,.376,1.509,3.517,3.517,0,0,1-.064.933l.58.27A3.327,3.327,0,0,1,58.5,10.89a4.5,4.5,0,0,1,1.544-.161.5.5,0,1,1-.054,1,3.536,3.536,0,0,0-1.208.122,2.391,2.391,0,0,0-1.063.632l.783.363a.5.5,0,1,1-.419.905L57.2,13.34a2.681,2.681,0,0,0-.134.709,3.455,3.455,0,0,0,.146,1.182.5.5,0,0,1-.957.281,4.482,4.482,0,0,1-.185-1.517,3.682,3.682,0,0,1,.221-1.077l-.448-.209c-.031.056-.065.111-.1.165a3.506,3.506,0,0,1-1.576,1.3,4.455,4.455,0,0,1-1.494.345.5.5,0,1,1-.059-1,3.48,3.48,0,0,0,1.158-.267,2.506,2.506,0,0,0,1.134-.927c.01-.015.019-.029.028-.044l-1.408-.654ZM10.433,22.05a.5.5,0,1,1-.133-.987,1.6,1.6,0,0,0,1.088-.678,2.461,2.461,0,0,0,.384-.937l.083-.753h0a.483.483,0,0,1,.063-.194l.011-.019a.5.5,0,0,1,.156-.156l.019-.011a.5.5,0,0,1,.493,0l.019.011a.5.5,0,0,1,.156.156l.011.019a.5.5,0,0,1,.065.23,2.98,2.98,0,0,0,.465,1.652,1.591,1.591,0,0,0,1.088.678.5.5,0,1,1-.133.987,2.589,2.589,0,0,1-1.674-.962L12.3,23.741l.653-.416a.5.5,0,1,1,.535.839l-1.328.846-.343,3.109a.5.5,0,0,1-.993-.1l.255-2.314-.653.416a.5.5,0,1,1-.535-.839l1.328-.846.309-2.805a2.577,2.577,0,0,1-1.1.426Zm10.754-10.6a.5.5,0,0,1-.918.395,1.741,1.741,0,0,1,.006-1.394,1.443,1.443,0,0,1,.749-.739,1.572,1.572,0,0,1,.39-.11.5.5,0,0,1,.481.2,2.447,2.447,0,0,1,.205-.462,1.546,1.546,0,0,1,.505-.545,1.008,1.008,0,0,1,.8-.134A1.851,1.851,0,0,1,24.52,9.808c.055.116.109.244.164.375a2.037,2.037,0,0,1,.181-.281,1.559,1.559,0,0,1,1.162-.626,1.3,1.3,0,0,1,1.147.356,1.727,1.727,0,0,1,.409.565,1.552,1.552,0,0,1,.136.746,1.916,1.916,0,0,1-1.072,1.489h0a.5.5,0,0,1-.1.044,2.264,2.264,0,0,1-1.139.129c.11,1.057.161,2.237-.8,2.845a.5.5,0,1,1-.531-.843c.516-.325.408-1.321.315-2.157-.026-.235-.05-.46-.063-.671a7.285,7.285,0,0,1-.5-1.062c-.066-.162-.133-.322-.208-.48-.184-.39-.335-.567-.45-.595a.069.069,0,0,0-.034.012.57.57,0,0,0-.173.2,2.03,2.03,0,0,0-.141,1.534L23.41,12.4a.5.5,0,0,1-.864.5l-1.268-2.167a.508.508,0,0,0-.1.14.73.73,0,0,0-.048.4.812.812,0,0,0,.051.181Zm4.143-.089a.813.813,0,0,0,.854.177c.374-.232.524-.468.539-.673a.543.543,0,0,0-.05-.269.716.716,0,0,0-.17-.232c-.1-.089-.189-.142-.231-.127a.5.5,0,0,1-.133.025h0a.616.616,0,0,0-.483.244,2.083,2.083,0,0,0-.315.792C25.336,11.322,25.333,11.343,25.329,11.366ZM35.563,7.647a.5.5,0,1,1-.059-1,1.094,1.094,0,0,0,1.04-.749c.239-.48.455-.912,1.189-.984a.576.576,0,0,1,.114,0c.722.077.935.507,1.173.983a1.059,1.059,0,0,0,2.023,0c.239-.48.455-.912,1.189-.984a.576.576,0,0,1,.114,0c.722.077.935.507,1.173.983a1.1,1.1,0,0,0,1.04.749.5.5,0,1,1-.059,1,1.933,1.933,0,0,1-1.877-1.3c-.1-.2-.191-.382-.344-.428-.153.046-.244.227-.344.428a1.933,1.933,0,0,1-1.866,1.3.649.649,0,0,1-.07,0,1.933,1.933,0,0,1-1.877-1.3c-.1-.2-.191-.382-.344-.428-.153.046-.244.227-.344.428a1.933,1.933,0,0,1-1.877,1.3ZM35.481,10.6a.5.5,0,1,1-.059-1,1.094,1.094,0,0,0,1.04-.749c.239-.48.455-.912,1.189-.984a.577.577,0,0,1,.114,0c.722.077.935.507,1.173.983a1.059,1.059,0,0,0,2.023,0c.239-.48.455-.912,1.189-.984a.577.577,0,0,1,.114,0c.722.077.935.507,1.173.983a1.1,1.1,0,0,0,1.04.749.5.5,0,1,1-.059,1,1.933,1.933,0,0,1-1.877-1.3c-.1-.2-.191-.382-.344-.428-.153.046-.244.227-.344.428a1.933,1.933,0,0,1-1.866,1.3.649.649,0,0,1-.07,0,1.933,1.933,0,0,1-1.877-1.3c-.1-.2-.191-.382-.344-.428-.153.046-.244.227-.344.428a1.933,1.933,0,0,1-1.877,1.3Zm29.9,4.4-5.59,5.381a27.792,27.792,0,0,1,6.491,11.729l7.585-1.881a35.505,35.505,0,0,0-8.488-15.229ZM59.1,19.671l5.586-5.378-.063-.064A35.613,35.613,0,0,0,49.672,5.3l-2.13,7.394a27.881,27.881,0,0,1,11.517,6.934ZM74.114,31.2l-7.588,1.882a28.035,28.035,0,0,1-.208,13.324l7.544,2.168A35.811,35.811,0,0,0,74.114,31.2ZM73.593,49.54l-7.544-2.168a27.837,27.837,0,0,1-6.77,11.434l.023.022,5.428,5.625a35.562,35.562,0,0,0,8.864-14.913ZM64.017,65.151l-5.436-5.632-.012-.014a27.849,27.849,0,0,1-11.544,6.61l1.887,7.59a35.577,35.577,0,0,0,15.1-8.554ZM47.946,73.956l-1.886-7.585a28.132,28.132,0,0,1-13.357.022l-2.152,7.469a35.946,35.946,0,0,0,17.394.094ZM29.587,73.6l2.15-7.46a27.866,27.866,0,0,1-11.665-6.664l-5.557,5.349A35.61,35.61,0,0,0,29.586,73.6ZM13.812,64.119l5.551-5.343A27.824,27.824,0,0,1,12.542,47.1L5.106,48.948A35.541,35.541,0,0,0,13.813,64.12Zm-9.753-15.2a.48.48,0,0,1-.1-.2.5.5,0,0,1-.008-.206,36.766,36.766,0,1,1,.108.4Zm.793-.932,7.43-1.843a28.046,28.046,0,0,1-.009-13.592L4.943,30.44a35.816,35.816,0,0,0-.091,17.542Zm8.481-1.774a.5.5,0,0,1,.075.166.489.489,0,0,1,.013.159,27.126,27.126,0,1,0-.088-.325ZM5.206,29.478l7.325,2.106a27.835,27.835,0,0,1,6.89-11.768l-5.288-5.479A35.543,35.543,0,0,0,5.206,29.478Zm9.638-15.839,5.287,5.478a27.84,27.84,0,0,1,11.889-6.684L30.177,5.02A35.608,35.608,0,0,0,14.844,13.639ZM49.024,40.52a7.294,7.294,0,0,1,1.318-.869,8.809,8.809,0,0,1,2.835-.858,24.382,24.382,0,0,1,3.187-.167,10.576,10.576,0,0,0,4.927-.788,10.242,10.242,0,0,1-3.953-1.184c-1.669-.762-3.315-1.511-5.366-.7A9.876,9.876,0,0,0,49.05,38.4q.043.457.044.925a9.892,9.892,0,0,1-.073,1.194Zm-.179-3.4a14.885,14.885,0,0,1,4.817-3.141c1.748-.827,3.406-1.612,4.479-3.264a10.17,10.17,0,0,1-4.978.538c-2.158-.137-4.248-.27-6.208,1.978a9.729,9.729,0,0,1,1.892,3.888ZM46.43,32.323a7.315,7.315,0,0,1,1.274-1.1c.336-.3.7-.6,1.054-.888,1.537-1.26,2.9-2.376,2.482-4.537-1.257,1.687-2.771,1.795-4.2,1.9-.141.01-.281.02-.418.031A6.829,6.829,0,0,0,46.43,32.323Zm.629-5.629a4,4,0,0,0,3.9-2.332h0a.491.491,0,0,1,.264-.236.5.5,0,0,1,.645.285c1.143,2.933.106,4.443-1.457,5.836a15.6,15.6,0,0,1,2.816.01c1.9.12,3.844.244,5.776-1.2h0a.5.5,0,0,1,.769.563c-1,2.866-3,3.978-5.2,5.028a11.7,11.7,0,0,1,3.185,1.1c1.554.708,3.13,1.428,5.059.918h0a.5.5,0,0,1,.5.811c-1.843,2.1-4.333,2.123-6.942,2.144-.738.006-1.484.012-2.225.07A4,4,0,0,0,58.115,41.9a.5.5,0,0,1,.42.809c-1.972,2.454-3.8,2.313-5.79,1.659a15.467,15.467,0,0,1,1.4,2.442c.843,1.7,1.709,3.446,3.926,4.4a.5.5,0,0,1-.1.949c-2.984.568-4.951-.612-6.96-1.987a11.673,11.673,0,0,1,.641,3.306c.161,1.691.326,3.406,1.713,4.816a.5.5,0,0,1-.431.861c-2.745-.543-4.008-2.688-5.332-4.935-.375-.636-.754-1.28-1.173-1.891a3.99,3.99,0,0,0,.06,4.522.493.493,0,0,1,.086.362.5.5,0,0,1-.569.42c-3.115-.478-3.908-2.131-4.335-4.18a15.639,15.639,0,0,1-1.416,2.429c-1.053,1.58-2.133,3.2-1.848,5.6h0a.494.494,0,0,1-.169.435.5.5,0,0,1-.7-.051c-1.987-2.3-1.948-4.589-1.761-7.013a11.724,11.724,0,0,1-2.543,2.206c-1.392.989-2.8,1.993-3.325,3.917h0a.5.5,0,0,1-.954.03c-.9-2.644.326-4.808,1.612-7.078.363-.639.732-1.289,1.05-1.958a4,4,0,0,0-3.9,2.332h0a.491.491,0,0,1-.264.236.5.5,0,0,1-.645-.285c-1.143-2.933-.106-4.443,1.457-5.836a15.6,15.6,0,0,1-2.816-.01c-1.9-.12-3.844-.244-5.776,1.2h0a.5.5,0,0,1-.769-.563c1-2.866,3-3.978,5.2-5.028a11.7,11.7,0,0,1-3.185-1.1c-1.554-.708-3.13-1.428-5.059-.918h0a.5.5,0,0,1-.5-.811c1.843-2.1,4.333-2.123,6.942-2.144.738-.006,1.484-.012,2.225-.07a4,4,0,0,0-3.965-2.208.5.5,0,0,1-.42-.809c1.972-2.454,3.8-2.313,5.79-1.659a15.466,15.466,0,0,1-1.4-2.442c-.843-1.7-1.709-3.446-3.926-4.4a.5.5,0,0,1,.1-.949c2.984-.568,4.951.612,6.96,1.987a11.673,11.673,0,0,1-.641-3.306c-.161-1.691-.326-3.406-1.713-4.816a.5.5,0,0,1,.431-.861c2.745.543,4.008,2.688,5.332,4.935.374.636.754,1.28,1.173,1.89a3.99,3.99,0,0,0-.06-4.522.493.493,0,0,1-.086-.362.5.5,0,0,1,.569-.42c3.115.478,3.908,2.131,4.335,4.18a15.638,15.638,0,0,1,1.416-2.429c1.053-1.58,2.133-3.2,1.848-5.6h0a.494.494,0,0,1,.169-.435.5.5,0,0,1,.7.051c1.987,2.3,1.948,4.589,1.761,7.013A11.724,11.724,0,0,1,45.44,21.6c1.392-.989,2.8-1.993,3.325-3.917h0a.5.5,0,0,1,.954-.03c.9,2.644-.326,4.809-1.612,7.078-.363.639-.73,1.289-1.05,1.958Zm5.972,13.132a7.573,7.573,0,0,0-2.231.712,6.57,6.57,0,0,0-1.847,1.425,7.25,7.25,0,0,1,1.6.56c.449.149.872.307,1.285.462,1.859.7,3.507,1.318,5.174-.121-2.092-.244-2.942-1.5-3.746-2.688C53.189,40.057,53.109,39.939,53.031,39.826Zm-7.2,11.424a.5.5,0,0,1,.086-.2c.431-1.063.523-2.162-1.025-3.7a9.732,9.732,0,0,1-3.1,1.421,7.43,7.43,0,0,1,.38,1.855c.094.451.169.908.243,1.355.324,1.957.61,3.691,2.691,4.413-.834-1.93-.17-3.292.458-4.582.091-.187.181-.373.264-.56Zm1.075.034a26.983,26.983,0,0,1,1.552,2.428A10.529,10.529,0,0,0,51.6,57.577a10.225,10.225,0,0,1-.949-4.01c-.175-1.825-.348-3.623-2.071-4.991a10.924,10.924,0,0,0-2.136-.967,3.393,3.393,0,0,1,.458,3.673ZM46,46.45a14.868,14.868,0,0,1,5.132,2.6c1.592,1.1,3.1,2.141,5.072,2.242a10.128,10.128,0,0,1-2.957-4.038c-.959-1.933-1.888-3.806-4.818-4.379a9.767,9.767,0,0,1-2.195,3.351C46.161,46.3,46.082,46.376,46,46.45Zm-12.547.667c.489,2.848-.8,5.12-2.032,7.3a10.549,10.549,0,0,0-1.779,4.652,10.219,10.219,0,0,1,3-2.824c1.494-1.063,2.967-2.111,3.291-4.285a9.87,9.87,0,0,0-.663-3.756,9.752,9.752,0,0,1-1.818-1.084Zm3.037,1.545a14.8,14.8,0,0,1,.314,5.734c-.156,1.926-.305,3.754.59,5.508A10.118,10.118,0,0,1,39.42,55.33c1.2-1.8,2.357-3.54,1.39-6.36a9.916,9.916,0,0,1-1.477.111A9.738,9.738,0,0,1,36.493,48.662Zm-4.447,2.267a6.821,6.821,0,0,0,.189-4.6,7.285,7.285,0,0,1-1.275,1.1c-.336.3-.7.6-1.054.888-1.537,1.26-2.9,2.376-2.482,4.537,1.257-1.687,2.771-1.795,4.2-1.9.141-.01.281-.02.418-.031Zm-6.3-11.949a.51.51,0,0,1,.146.194c.705.9,1.612,1.522,3.713.954q-.032-.4-.033-.8a9.731,9.731,0,0,1,.349-2.59,7.465,7.465,0,0,1-1.808-.6c-.449-.149-.872-.307-1.285-.462-1.859-.7-3.508-1.318-5.174.121,2.092.244,2.942,1.5,3.746,2.688.115.17.229.337.346.5Zm-.561.922a26.851,26.851,0,0,1-2.88.127,10.576,10.576,0,0,0-4.927.788A10.242,10.242,0,0,1,21.327,42c1.669.762,3.315,1.511,5.366.7A10.982,10.982,0,0,0,28.6,41.341,3.4,3.4,0,0,1,25.182,39.9Zm4.64,1.636A14.885,14.885,0,0,1,25,44.679c-1.748.827-3.406,1.612-4.479,3.264A10.17,10.17,0,0,1,25.5,47.4c2.158.137,4.248.27,6.208-1.978A9.719,9.719,0,0,1,29.821,41.538Zm1.939-14.164a26.807,26.807,0,0,1-1.552-2.428,10.529,10.529,0,0,0-3.146-3.866,10.224,10.224,0,0,1,.949,4.01c.175,1.825.348,3.623,2.071,4.991a10.924,10.924,0,0,0,2.136.967,3.393,3.393,0,0,1-.458-3.673Zm.9,4.833a14.868,14.868,0,0,1-5.132-2.6c-1.592-1.1-3.1-2.141-5.072-2.242a10.128,10.128,0,0,1,2.957,4.038c.959,1.933,1.888,3.806,4.818,4.379a9.767,9.767,0,0,1,2.195-3.351C32.506,32.357,32.585,32.281,32.663,32.207ZM45.21,31.54c-.489-2.848.8-5.119,2.032-7.3a10.549,10.549,0,0,0,1.779-4.652,10.219,10.219,0,0,1-3,2.824c-1.494,1.063-2.967,2.111-3.291,4.285a9.87,9.87,0,0,0,.663,3.756,9.752,9.752,0,0,1,1.818,1.084ZM42.173,30a14.8,14.8,0,0,1-.314-5.734c.156-1.926.305-3.754-.589-5.508a10.118,10.118,0,0,1-2.022,4.574c-1.2,1.8-2.357,3.54-1.39,6.36a9.911,9.911,0,0,1,1.476-.111A9.738,9.738,0,0,1,42.173,30Zm-5.3-.106a7.431,7.431,0,0,1-.38-1.855c-.094-.451-.169-.908-.243-1.355-.324-1.957-.61-3.691-2.691-4.413.834,1.93.17,3.292-.458,4.582-.645,1.325-1.244,2.557.675,4.463a9.732,9.732,0,0,1,3.1-1.421Zm8.658,3.25A8.769,8.769,0,0,0,31.037,36.5l0,.009a8.765,8.765,0,0,0,16.6,5.643l0-.009a8.758,8.758,0,0,0-2.1-9.008Z" transform="translate(5.195 -248.805)" fill="#fff"/>
  </g>
</svg>
