<svg width="276" height="276" viewBox="0 0 276 276" fill="none" xmlns="http://www.w3.org/2000/svg">
<path d="M264.96 0H11.04C4.9335 0 0 4.9335 0 11.04V264.96C0 271.066 4.9335 276 11.04 276H264.96C271.066 276 276 271.066 276 264.96V11.04C276 4.9335 271.066 0 264.96 0ZM233.082 80.5575H211.037C193.752 80.5575 190.406 88.7685 190.406 100.843V127.443H231.667L226.286 169.084H190.406V276H147.384V169.119H111.4V127.443H147.384V96.738C147.384 61.0995 169.154 41.676 200.962 41.676C216.211 41.676 229.287 42.8145 233.117 43.332V80.5575H233.082Z" fill="#fff"/>
</svg>
