<svg xmlns="http://www.w3.org/2000/svg" width="62.855" height="48.807" viewBox="0 0 62.855 48.807">
  <g id="noun_Lotus_1594772" transform="translate(-14.145 -22.158)">
    <path id="Path_19" data-name="Path 19" d="M76.812,29.673a.539.539,0,0,0-.555-.092,53.883,53.883,0,0,0-7.863,4.344A43.076,43.076,0,0,0,63.647,25.5a.541.541,0,0,0-.7-.149,42.6,42.6,0,0,0-8.3,6.251c-.295-.372-.586-.733-.872-1.079a78.661,78.661,0,0,0-7.851-8.235.54.54,0,0,0-.711,0,78.663,78.663,0,0,0-7.851,8.235c-.294.356-.594.729-.9,1.112a42.57,42.57,0,0,0-8.335-6.285.541.541,0,0,0-.7.149A43.092,43.092,0,0,0,22.7,33.9a53.715,53.715,0,0,0-7.815-4.313.54.54,0,0,0-.728.627,76.648,76.648,0,0,1,1.786,15.813c0,8.62,1.775,14.22,5.755,18.158,4.615,4.566,12.423,6.786,23.872,6.786s19.257-2.22,23.872-6.786c3.98-3.938,5.755-9.538,5.755-18.158a76.648,76.648,0,0,1,1.786-15.813A.541.541,0,0,0,76.812,29.673ZM63.062,26.541a43.2,43.2,0,0,1,4.4,8c-1.252.833-2.608,1.787-4.042,2.863a11.673,11.673,0,0,0,.989-2.851.54.54,0,1,0-1.056-.228,8.4,8.4,0,0,1-2.4,4.62l1.116-6.029a.54.54,0,1,0-1.063-.2l-1.12,6.05a12.394,12.394,0,0,1-.825-5.141.54.54,0,0,0-1.081,0,20.422,20.422,0,0,0,.186,2.885c-.926-1.438-1.894-2.8-2.844-4.036A42.583,42.583,0,0,1,63.062,26.541Zm-35.038,0a42.461,42.461,0,0,1,7.77,5.966c-.955,1.247-1.928,2.615-2.857,4.062a20.281,20.281,0,0,0,.195-2.944.54.54,0,0,0-1.081,0,12.4,12.4,0,0,1-.824,5.142L30.1,32.716a.54.54,0,1,0-1.063.2l1.116,6.028a8.4,8.4,0,0,1-2.4-4.62.54.54,0,1,0-1.056.228,11.716,11.716,0,0,0,.969,2.814c-1.433-1.074-2.788-2.027-4.039-2.857A43.312,43.312,0,0,1,28.023,26.541ZM26.411,60.607a22.2,22.2,0,0,0,5.639,6.187A17.057,17.057,0,0,1,27.7,63.74a16.684,16.684,0,0,1-4.42-6.773.54.54,0,0,0-1.049.261c.035.139.89,3.461,4.7,7.276a16.137,16.137,0,0,0,2.3,1.894,21.82,21.82,0,0,1-3.893-2.687.54.54,0,0,0-.735.792,22.01,22.01,0,0,0,3.957,2.776c-9.226-3.764-11.544-11.369-11.544-21.257a78.457,78.457,0,0,0-1.585-15,61.371,61.371,0,0,1,6.858,3.9c.3.2.618.4.936.617a89.121,89.121,0,0,1,7.216,5.384,27.9,27.9,0,0,0-2.611,7.622,24.253,24.253,0,0,0-.287,2.483q-.037.575-.046,1.144A19.317,19.317,0,0,0,31.8,65.033c.165.2.337.382.509.568a20.959,20.959,0,0,1-4.974-5.559.54.54,0,0,0-.921.565ZM49.87,69.435c4.671-2.214,7.919-7.922,7.919-14.786a.54.54,0,1,0-1.081,0c0,7.075-3.625,12.834-8.624,14.322a12.928,12.928,0,0,0,5.653-10.539.54.54,0,0,0-1.081,0,11.9,11.9,0,0,1-5.306,9.741,12.981,12.981,0,0,0,1.7-6.319.54.54,0,1,0-1.081,0,12.365,12.365,0,0,1-2.432,7.129,12.323,12.323,0,0,1-2.43-7.129.54.54,0,1,0-1.081,0,12.981,12.981,0,0,0,1.7,6.319,11.9,11.9,0,0,1-5.306-9.741.54.54,0,0,0-1.081,0A12.928,12.928,0,0,0,43,68.971c-5-1.487-8.624-7.246-8.624-14.322a.54.54,0,0,0-1.081,0c0,6.837,3.222,12.526,7.864,14.758a15.332,15.332,0,0,1-8.537-5.072,18.156,18.156,0,0,1-4.034-11.82q0-.554.029-1.114a23.082,23.082,0,0,1,.289-2.679,26.45,26.45,0,0,1,2.4-7.089q.242-.5.5-.989A52.4,52.4,0,0,1,36.559,33.3q.338-.443.677-.873a80.319,80.319,0,0,1,8.336-9.005A80.34,80.34,0,0,1,53.881,32.4q.339.43.678.872a52.471,52.471,0,0,1,4.781,7.376q.258.492.5.989a26.449,26.449,0,0,1,2.4,7.089,23.078,23.078,0,0,1,.288,2.662q.029.56.03,1.114a18.16,18.16,0,0,1-4.034,11.837A15.352,15.352,0,0,1,49.87,69.435ZM74.118,46.022c0,9.92-2.335,17.542-11.638,21.293A22.03,22.03,0,0,0,66.5,64.5a.54.54,0,0,0-.735-.792A21.818,21.818,0,0,1,61.873,66.4a16.134,16.134,0,0,0,2.3-1.894c3.814-3.815,4.67-7.137,4.7-7.276a.54.54,0,0,0-1.049-.261,16.677,16.677,0,0,1-4.42,6.773,17.044,17.044,0,0,1-4.341,3.05A22.2,22.2,0,0,0,64.7,60.607a.54.54,0,0,0-.921-.565,20.957,20.957,0,0,1-4.875,5.482c.148-.162.3-.323.44-.492a19.321,19.321,0,0,0,4.29-12.885q-.009-.57-.047-1.146a24.26,24.26,0,0,0-.286-2.459,27.893,27.893,0,0,0-2.611-7.622,89.183,89.183,0,0,1,7.168-5.352q.477-.32.935-.617A61.507,61.507,0,0,1,75.7,31.017,78.456,78.456,0,0,0,74.118,46.022Z" fill="#197278"/>
  </g>
</svg>
