<svg xmlns="http://www.w3.org/2000/svg" width="63.481" height="79.575" viewBox="0 0 63.481 79.575">
  <g id="noun_moon_card_2276690" data-name="noun_moon card_2276690" transform="translate(881.96 -2.23)">
    <g id="Group_224" data-name="Group 224" transform="translate(-881.96 2.23)">
      <path id="Path_10" data-name="Path 10" d="M34.362,47.992a2.111,2.111,0,0,1-2.066,2.12,2.107,2.107,0,0,1,1.891,2.282,2.1,2.1,0,0,1,2.066-2.12,2.1,2.1,0,0,1-1.891-2.282Z" transform="translate(0.463 13.812)" fill="#197278"/>
      <path id="Path_11" data-name="Path 11" d="M71.341,14.277a1.359,1.359,0,0,0-.81-.635L49.056,7.754V3.581A1.351,1.351,0,0,0,47.706,2.23H9.391A1.351,1.351,0,0,0,8.04,3.581V71.527a1.351,1.351,0,0,0,1.351,1.351H19.506l32.346,8.873a1.468,1.468,0,0,0,.351.054,1.524,1.524,0,0,0,.675-.176,1.438,1.438,0,0,0,.635-.824L71.476,15.3a1.36,1.36,0,0,0-.135-1.026Zm-22.284,1.54L57.822,18.1a6,6,0,0,0,3.093,5.915L49.907,64.14a4.324,4.324,0,0,0-.594.013L49.219,53.43A11.947,11.947,0,0,0,51.933,50.8a13.685,13.685,0,0,0-2.877-19.11Zm.135,34.264L49.07,35.022a10.856,10.856,0,0,1,2.769,10.264A10.4,10.4,0,0,1,49.192,50.08Zm-38.45,20.1V4.931H46.355V70.177Zm40.517,8.617L29.689,72.878H46.535a2.257,2.257,0,0,1,.347,2.107,2.1,2.1,0,0,1,2.566-1.5,1.846,1.846,0,0,1-1.025-.847,1.319,1.319,0,0,0,.6-.97c0-.02.019-.036.022-.057a.57.57,0,0,0,0-.081V66.976a2.041,2.041,0,0,1,1.472,0,1.365,1.365,0,0,0,1.661-.945L63.822,23.582a1.351,1.351,0,0,0-.932-1.661,3.274,3.274,0,0,1-2.3-4.011,2.922,2.922,0,0,1,.108-.324,1.341,1.341,0,0,0-.918-1.769l-10.737-2.8V10.549L68.5,15.884Z" transform="translate(-8.04 -2.23)" fill="#197278"/>
      <path id="Path_12" data-name="Path 12" d="M13.246,47.83a2.1,2.1,0,0,1-2.066,2.12,2.108,2.108,0,0,1,1.877,2.3,2.087,2.087,0,0,1,2.066-2.12,2.091,2.091,0,0,1-1.877-2.3Z" transform="translate(-6.939 13.755)" fill="#197278"/>
      <path id="Path_13" data-name="Path 13" d="M13.049,10.444a2.257,2.257,0,0,1,2.215-2.282A2.255,2.255,0,0,1,13.252,5.69a2.3,2.3,0,0,1-2.242,2.3,2.262,2.262,0,0,1,2.039,2.458Z" transform="translate(-6.999 -1.017)" fill="#197278"/>
      <path id="Path_14" data-name="Path 14" d="M34.593,5.39a2.42,2.42,0,0,1-.7,1.634,1.985,1.985,0,0,1-1.486.609,2.228,2.228,0,0,1,2,2.422A2.216,2.216,0,0,1,36.521,7.8a1.718,1.718,0,0,1-.847-.29A2.288,2.288,0,0,1,34.593,5.39Z" transform="translate(0.502 -1.122)" fill="#197278"/>
      <path id="Path_15" data-name="Path 15" d="M49.2,16.7A2.095,2.095,0,0,1,51.807,15.3a1.656,1.656,0,0,1-.744-.524,2.161,2.161,0,0,1-.377-2.224,2.334,2.334,0,0,1-1.1,1.279,1.891,1.891,0,0,1-1.514.127A2.1,2.1,0,0,1,49.2,16.7Z" transform="translate(5.995 1.387)" fill="#197278"/>
      <path id="Path_16" data-name="Path 16" d="M43.133,59.668v-46.9a1.384,1.384,0,0,0-1.351-1.351A3.353,3.353,0,0,1,39.176,10.2a3.44,3.44,0,0,1-.837-2.715,1.34,1.34,0,0,0-.365-1.04,1.438,1.438,0,0,0-1-.432l-19.583.284A1.326,1.326,0,0,0,16.1,7.9a2.112,2.112,0,0,1,.027.419,3.533,3.533,0,0,1-3.511,3.565,1.351,1.351,0,0,0-1.351,1.351V59.668a1.422,1.422,0,0,0,.419.959,1.4,1.4,0,0,0,.986.392A3.44,3.44,0,0,1,15.325,62.3a3.613,3.613,0,0,1,.8,2.282,1.351,1.351,0,0,0,1.351,1.351H36.961a1.351,1.351,0,0,0,1.351-1.351,3.511,3.511,0,0,1,3.471-3.565A1.351,1.351,0,0,0,43.133,59.668Zm-2.7-1.2a6.265,6.265,0,0,0-4.673,4.767H18.675a6.348,6.348,0,0,0-1.243-2.62,6.186,6.186,0,0,0-3.471-2.147V14.437a6.226,6.226,0,0,0,4.821-5.47l16.9-.23a6.381,6.381,0,0,0,1.418,3.2,6.077,6.077,0,0,0,3.336,2.026Z" transform="translate(-6.911 -0.905)" fill="#197278"/>
      <path id="Path_17" data-name="Path 17" d="M29.038,19.165a12.171,12.171,0,0,0-3.809-.176,12.771,12.771,0,0,0-6.321,22.96,11.48,11.48,0,0,0,3.4,1.81,12.781,12.781,0,1,0,6.726-24.594ZM36.628,31.7a10.129,10.129,0,0,1-6.4,9.386,9.973,9.973,0,0,1-7.023.122,9.377,9.377,0,0,1-2.674-1.4,10.077,10.077,0,0,1,5-18.125,8.484,8.484,0,0,1,1.013-.054A10.084,10.084,0,0,1,36.628,31.7Z" transform="translate(-6.038 3.619)" fill="#197278"/>
      <path id="Path_18" data-name="Path 18" d="M22.6,23.7a6.053,6.053,0,0,0-2.147.392.682.682,0,0,0,0,1.27,4.727,4.727,0,0,1,3.066,4.4,4.627,4.627,0,0,1-.459,2.026,4.7,4.7,0,0,1-2.607,2.4.69.69,0,0,0-.432.635.675.675,0,0,0,.446.635A6.078,6.078,0,1,0,22.6,23.7Zm4.254,8.09a4.676,4.676,0,0,1-4.241,2.7,6.056,6.056,0,0,0-.014-9.44,4.727,4.727,0,0,1,4.713,4.713,4.627,4.627,0,0,1-.459,2.026Z" transform="translate(-3.84 5.296)" fill="#197278"/>
    </g>
  </g>
</svg>
