<svg width="34" height="24" viewBox="0 0 34 24" fill="none" xmlns="http://www.w3.org/2000/svg">
<path d="M33.2904 3.74904C33.0969 3.02308 32.7174 2.36104 32.1899 1.82918C31.6625 1.29733 31.0056 0.914313 30.285 0.718471C27.6326 1.45785e-07 17 0 17 0C17 0 6.36741 -1.45785e-07 3.71496 0.71465C2.99405 0.909856 2.33683 1.29266 1.80931 1.82461C1.28178 2.35656 0.902515 3.01894 0.709598 3.74522C-1.44754e-07 6.42038 0 12 0 12C0 12 -1.44754e-07 17.5796 0.709598 20.251C1.10045 21.7261 2.25402 22.8879 3.71496 23.2815C6.36741 24 17 24 17 24C17 24 27.6326 24 30.285 23.2815C31.7498 22.8879 32.8996 21.7261 33.2904 20.251C34 17.5796 34 12 34 12C34 12 34 6.42038 33.2904 3.74904ZM13.6228 17.121V6.87898L22.4263 11.9618L13.6228 17.121Z" fill="white"/>
</svg>
